<svg preserveAspectRatio="none" width="100%" height="100%" overflow="visible" style="display: block;" viewBox="0 0 28 28" fill="none" xmlns="http://www.w3.org/2000/svg">
<g id="camera-01">
<path id="Icon" d="M8.4 7.14V8.14C8.75567 8.14 9.08457 7.95109 9.26378 7.64387L8.4 7.14ZM10.36 3.78V2.78C10.0043 2.78 9.67543 2.96891 9.49622 3.27613L10.36 3.78ZM17.64 3.78L18.5038 3.27613C18.3246 2.96891 17.9957 2.78 17.64 2.78V3.78ZM19.6 7.14L18.7362 7.64387C18.9154 7.95109 19.2443 8.14 19.6 8.14V7.14ZM2.8 21.42H3.8V9.94H2.8H1.8V21.42H2.8ZM5.6 7.14V8.14H8.4V7.14V6.14H5.6V7.14ZM8.4 7.14L9.26378 7.64387L11.2238 4.28387L10.36 3.78L9.49622 3.27613L7.53622 6.63613L8.4 7.14ZM10.36 3.78V4.78H17.64V3.78V2.78H10.36V3.78ZM17.64 3.78L16.7762 4.28387L18.7362 7.64387L19.6 7.14L20.4638 6.63613L18.5038 3.27613L17.64 3.78ZM19.6 7.14V8.14H22.4V7.14V6.14H19.6V7.14ZM25.2 9.94H24.2V21.42H25.2H26.2V9.94H25.2ZM25.2 21.42H24.2C24.2 22.4141 23.3941 23.22 22.4 23.22V24.22V25.22C24.4987 25.22 26.2 23.5187 26.2 21.42H25.2ZM22.4 7.14V8.14C23.3941 8.14 24.2 8.94589 24.2 9.94H25.2H26.2C26.2 7.84132 24.4987 6.14 22.4 6.14V7.14ZM2.8 9.94H3.8C3.8 8.94589 4.60589 8.14 5.6 8.14V7.14V6.14C3.50132 6.14 1.8 7.84132 1.8 9.94H2.8ZM5.6 24.22V23.22C4.60589 23.22 3.8 22.4141 3.8 21.42H2.8H1.8C1.8 23.5187 3.50132 25.22 5.6 25.22V24.22ZM18.2 14.98H17.2C17.2 16.7473 15.7673 18.18 14 18.18V19.18V20.18C16.8719 20.18 19.2 17.8519 19.2 14.98H18.2ZM14 19.18V18.18C12.2327 18.18 10.8 16.7473 10.8 14.98H9.8H8.8C8.8 17.8519 11.1281 20.18 14 20.18V19.18ZM9.8 14.98H10.8C10.8 13.2127 12.2327 11.78 14 11.78V10.78V9.78C11.1281 9.78 8.8 12.1081 8.8 14.98H9.8ZM14 10.78V11.78C15.7673 11.78 17.2 13.2127 17.2 14.98H18.2H19.2C19.2 12.1081 16.8719 9.78 14 9.78V10.78ZM22.4 24.22V23.22H5.6V24.22V25.22H22.4V24.22Z" fill="var(--stroke-0, #F23F19)"/>
</g>
</svg>
